# xmcd
#
# Track frame offsets:
#	182
#	16877
#	34395
#	50500
#	80380
#	95645
#	117175
#	137495
#	152542
#	166005
#	206950
#
# Disc length: 3026 seconds
#
# Revision: 3
# Processed by: cddbd v1.5.2PL0 Copyright (c) Steve Scherf et al.
# Submitted via: dBpowerAMP V4.0
#
DISCID=880bd00b
DTITLE=Grapes - Water To Wine
DYEAR=1991
DGENRE=Blues
TTITLE0=Full Of Holes
TTITLE1=Pick The Lock
TTITLE2=Sweet Angeline
TTITLE3=Let It Go
TTITLE4=1/2 Past 10
TTITLE5=Water To Wine
TTITLE6=Run With You
TTITLE7=Long Time Running
TTITLE8=Junkyard Blues
TTITLE9=Big .45 - Dream The Night Away
TTITLE10=Drift Away
EXTD=Updates and corrections
EXTT0=
EXTT1=
EXTT2=
EXTT3=
EXTT4=
EXTT5=
EXTT6=
EXTT7=
EXTT8=
EXTT9=
EXTT10=
PLAYORDER=
